<?xml version="1.0" encoding="UTF-8" standalone="no"?>
<svg
   xmlns:dc="http://purl.org/dc/elements/1.1/"
   xmlns:cc="http://creativecommons.org/ns#"
   xmlns:rdf="http://www.w3.org/1999/02/22-rdf-syntax-ns#"
   xmlns:svg="http://www.w3.org/2000/svg"
   xmlns="http://www.w3.org/2000/svg"
   viewBox="0 0 330.92932 107.80853"
   height="107.80853"
   width="330.92932"
   xml:space="preserve"
   id="svg2"
   version="1.1"><metadata
     id="metadata8"><rdf:RDF><cc:Work
         rdf:about=""><dc:format>image/svg+xml</dc:format><dc:type
           rdf:resource="http://purl.org/dc/dcmitype/StillImage" /></cc:Work></rdf:RDF></metadata><defs
     id="defs6"><clipPath
       id="clipPath20"
       clipPathUnits="userSpaceOnUse"><path
         id="path18"
         d="M 0,80.856 H 248.197 V 0 H 0 Z" /></clipPath></defs><g
     transform="matrix(1.3333333,0,0,-1.3333333,0,107.80853)"
     id="g10"><path
       id="path12"
       style="fill:#f8ea08;fill-opacity:1;fill-rule:nonzero;stroke:none"
       d="M 0,0 H 248.197 V 80.856 H 0 Z" /><g
       id="g14"><g
         clip-path="url(#clipPath20)"
         id="g16"><g
           transform="translate(32.5802,51.188)"
           id="g22"><path
             id="path24"
             style="fill:#110f0d;fill-opacity:1;fill-rule:nonzero;stroke:none"
             d="M 0,0 C 1.808,-1.495 2.715,-3.98 2.715,-7.458 V -26.137 H -4.75 v 16.855 c 0,1.46 -0.191,2.578 -0.578,3.36 -0.702,1.421 -2.041,2.131 -4.011,2.131 -2.425,0 -4.089,-1.042 -4.989,-3.131 -0.47,-1.098 -0.703,-2.5 -0.703,-4.216 v -14.999 h -7.238 V 1.607 h 7.008 v -4.105 c 0.929,1.415 1.805,2.44 2.632,3.066 1.479,1.115 3.36,1.671 5.637,1.671 C -4.143,2.239 -1.814,1.495 0,0" /></g><g
           transform="translate(59.4395,32.4267)"
           id="g26"><path
             id="path28"
             style="fill:#110f0d;fill-opacity:1;fill-rule:nonzero;stroke:none"
             d="m 0,0 c 1.14,1.504 1.712,3.647 1.712,6.423 0,2.776 -0.572,4.916 -1.712,6.414 -1.14,1.501 -2.779,2.248 -4.909,2.248 -2.131,0 -3.769,-0.747 -4.922,-2.248 -1.153,-1.498 -1.728,-3.638 -1.728,-6.414 0,-2.776 0.575,-4.919 1.728,-6.423 1.153,-1.508 2.791,-2.261 4.922,-2.261 2.13,0 3.769,0.753 4.909,2.261 m 5.787,-3.967 c -2.341,-2.881 -5.886,-4.325 -10.652,-4.325 -4.762,0 -8.31,1.444 -10.655,4.325 -2.331,2.89 -3.5,6.359 -3.5,10.425 0,3.993 1.169,7.452 3.5,10.384 2.345,2.922 5.893,4.388 10.655,4.388 4.766,0 8.311,-1.466 10.652,-4.388 C 8.125,13.91 9.294,10.451 9.294,6.458 9.294,2.392 8.125,-1.077 5.787,-3.967" /></g><g
           transform="translate(110.714,51.188)"
           id="g30"><path
             id="path32"
             style="fill:#110f0d;fill-opacity:1;fill-rule:nonzero;stroke:none"
             d="m 0,0 c 1.811,-1.495 2.718,-3.98 2.718,-7.458 v -18.679 h -7.464 v 16.855 c 0,1.46 -0.195,2.578 -0.578,3.36 -0.7,1.421 -2.038,2.131 -4.012,2.131 -2.428,0 -4.092,-1.042 -4.992,-3.131 -0.467,-1.098 -0.703,-2.5 -0.703,-4.216 v -14.999 h -7.234 V 1.607 h 7.004 v -4.105 c 0.929,1.415 1.805,2.44 2.632,3.066 1.482,1.115 3.363,1.671 5.637,1.671 C -4.143,2.239 -1.814,1.495 0,0" /></g><g
           transform="translate(135.588,38.586)"
           id="g34"><path
             id="path36"
             style="fill:#110f0d;fill-opacity:1;fill-rule:nonzero;stroke:none"
             d="m 0,0 c -0.463,-0.294 -0.923,-0.527 -1.393,-0.709 -0.472,-0.182 -1.114,-0.352 -1.929,-0.499 l -1.642,-0.309 c -1.533,-0.275 -2.644,-0.61 -3.328,-1.003 -1.153,-0.668 -1.737,-1.699 -1.737,-3.105 0,-1.249 0.348,-2.149 1.044,-2.705 0.7,-0.556 1.546,-0.837 2.543,-0.837 1.577,0 3.034,0.463 4.369,1.389 1.329,0.923 2.022,2.607 2.073,5.057 z m -4.424,3.373 c 1.345,0.166 2.309,0.386 2.888,0.639 1.041,0.444 1.562,1.133 1.562,2.072 0,1.141 -0.393,1.933 -1.189,2.364 C -1.958,8.882 -3.121,9.1 -4.657,9.1 -6.378,9.1 -7.599,8.678 -8.314,7.832 -8.825,7.212 -9.167,6.369 -9.336,5.308 h -7.008 c 0.153,2.399 0.831,4.37 2.038,5.912 1.913,2.415 5.209,3.626 9.882,3.626 3.038,0 5.737,-0.591 8.097,-1.773 C 6.03,11.888 7.209,9.623 7.209,6.276 V -6.468 c 0,-0.888 0.019,-1.955 0.051,-3.216 0.051,-0.946 0.195,-1.585 0.431,-1.92 0.237,-0.338 0.594,-0.62 1.067,-0.837 v -1.095 H 0.862 c -0.22,0.559 -0.377,1.082 -0.46,1.571 -0.086,0.489 -0.153,1.045 -0.204,1.664 -1.003,-1.089 -2.156,-2.025 -3.472,-2.788 -1.559,-0.911 -3.328,-1.361 -5.299,-1.361 -2.517,0 -4.593,0.722 -6.228,2.159 -1.642,1.441 -2.46,3.485 -2.46,6.126 0,3.428 1.32,5.906 3.961,7.442 1.45,0.834 3.584,1.435 6.391,1.789 l 2.485,0.307" /></g><g
           transform="translate(183.7623,52.6715)"
           id="g38"><path
             id="path40"
             style="fill:#110f0d;fill-opacity:1;fill-rule:nonzero;stroke:none"
             d="m 0,0 c 1.185,-0.47 2.268,-1.287 3.235,-2.456 0.78,-0.965 1.31,-2.156 1.582,-3.565 0.169,-0.936 0.255,-2.3 0.255,-4.101 l -0.054,-17.5 h -7.417 v 17.653 c 0,1.045 -0.172,1.91 -0.511,2.588 -0.648,1.287 -1.843,1.932 -3.58,1.932 -2.009,0 -3.396,-0.827 -4.165,-2.491 -0.393,-0.875 -0.588,-1.939 -0.588,-3.175 v -16.507 h -7.238 v 16.478 c 0,1.639 -0.169,2.833 -0.507,3.58 -0.611,1.336 -1.805,2 -3.587,2 -2.064,0 -3.453,-0.664 -4.169,-2 -0.389,-0.76 -0.581,-1.897 -0.581,-3.404 v -16.654 h -7.353 V 0.124 h 7.066 V -3.98 c 0.891,1.438 1.734,2.46 2.529,3.063 1.399,1.08 3.21,1.616 5.44,1.616 2.111,0 3.813,-0.466 5.11,-1.389 1.048,-0.859 1.843,-1.964 2.38,-3.312 0.955,1.619 2.13,2.804 3.539,3.567 1.498,0.754 3.165,1.134 4.995,1.134 C -2.396,0.699 -1.188,0.463 0,0" /></g><g
           transform="translate(202.6973,45.9617)"
           id="g42"><path
             id="path44"
             style="fill:#110f0d;fill-opacity:1;fill-rule:nonzero;stroke:none"
             d="M 0,0 C -1.025,-1.029 -1.671,-2.427 -1.939,-4.197 H 10.582 C 10.451,-2.316 9.809,-0.882 8.646,0.086 7.487,1.067 6.053,1.549 4.337,1.549 2.472,1.549 1.028,1.035 0,0 m 10.882,6.283 c 1.929,-0.863 3.529,-2.23 4.785,-4.089 1.137,-1.645 1.868,-3.555 2.207,-5.72 0.194,-1.271 0.271,-3.105 0.239,-5.491 H -2.111 c 0.115,-2.804 1.086,-4.772 2.906,-5.899 1.108,-0.703 2.447,-1.054 4.006,-1.054 1.654,0 3.002,0.431 4.037,1.287 0.562,0.466 1.063,1.108 1.495,1.932 h 7.374 c -0.194,-1.648 -1.092,-3.321 -2.682,-5.024 -2.476,-2.699 -5.945,-4.053 -10.407,-4.053 -3.682,0 -6.931,1.137 -9.745,3.414 -2.81,2.271 -4.219,5.973 -4.219,11.1 0,4.8 1.271,8.486 3.814,11.048 2.542,2.565 5.845,3.845 9.901,3.845 2.412,0 4.58,-0.431 6.513,-1.296" /></g><g
           transform="translate(231.7608,46.2504)"
           id="g46"><path
             id="path48"
             style="fill:#110f0d;fill-opacity:1;fill-rule:nonzero;stroke:none"
             d="m 0,0 h 1.479 c 1.249,0 2.395,0.061 2.395,1.501 0,1.207 -1.044,1.393 -1.999,1.393 H 0 Z m -1.418,4.037 h 3.523 c 2.165,0 3.184,-0.849 3.184,-2.6 0,-1.645 -1.038,-2.335 -2.392,-2.478 l 2.6,-4.022 H 3.977 L 1.501,-1.144 H 0 V -5.063 H -1.418 Z M 1.623,-7.164 c 3.602,0 6.397,2.871 6.397,6.682 0,3.73 -2.795,6.608 -6.397,6.608 -3.645,0 -6.433,-2.878 -6.433,-6.608 0,-3.811 2.788,-6.682 6.433,-6.682 m 0,14.437 c 4.251,0 7.812,-3.357 7.812,-7.755 0,-4.475 -3.561,-7.829 -7.812,-7.829 -4.268,0 -7.851,3.354 -7.851,7.829 0,4.398 3.583,7.755 7.851,7.755" /></g></g></g></g></svg>